<?xml version="1.0" encoding="UTF-8" standalone="no"?>
<svg xmlns="http://www.w3.org/2000/svg" xmlns:xlink="http://www.w3.org/1999/xlink" width="551.46515" height="538.56049">
  <defs>
    <linearGradient id="b">
      <stop offset="0" stop-color="#e48800"/>
      <stop offset="1" stop-color="#ebff05"/>
    </linearGradient>
    <linearGradient id="d">
      <stop offset="0" stop-color="#e49200"/>
      <stop offset="1" stop-color="#e7ba00"/>
    </linearGradient>
    <linearGradient id="e">
      <stop offset="0" stop-color="#fffc1e"/>
      <stop offset="1" stop-color="#e79300"/>
    </linearGradient>
    <linearGradient id="a">
      <stop offset="0" stop-color="#ffa505"/>
      <stop offset="1" stop-color="#ebff05"/>
    </linearGradient>
    <linearGradient xlink:href="#a" id="t" x1="-88.899521" x2="-87.418037" y1="-112.94703" y2="7.6144118" gradientTransform="translate(964.44873 128.27626) scale(.61703)" gradientUnits="userSpaceOnUse"/>
    <linearGradient xlink:href="#b" id="s" x1="-88.899521" x2="-87.418037" y1="-112.94703" y2="7.6144118" gradientTransform="rotate(129.254 398.82005612 490.28224282) scale(.61703)" gradientUnits="userSpaceOnUse"/>
    <linearGradient xlink:href="#b" id="r" x1="-88.899521" x2="-87.418037" y1="-112.94703" y2="7.6144118" gradientTransform="rotate(110.369 394.0737164 585.70153813) scale(.61703)" gradientUnits="userSpaceOnUse"/>
    <linearGradient xlink:href="#b" id="q" x1="-88.899521" x2="-87.418037" y1="-112.94703" y2="7.6144118" gradientTransform="matrix(.39043 .4778 .4778 -.39043 787.55149 490.48712)" gradientUnits="userSpaceOnUse"/>
    <linearGradient xlink:href="#b" id="p" x1="-88.899521" x2="-87.418037" y1="-112.94703" y2="7.6144118" gradientTransform="matrix(.21476 .57845 .57845 -.21476 738.06785 418.93203)" gradientUnits="userSpaceOnUse"/>
    <linearGradient xlink:href="#b" id="o" x1="-88.899521" x2="-87.418037" y1="-112.94703" y2="7.6144118" gradientTransform="matrix(-.06558 .61353 .61353 .06558 709.91493 328.3874)" gradientUnits="userSpaceOnUse"/>
    <linearGradient xlink:href="#b" id="n" x1="-88.899521" x2="-87.418037" y1="-112.94703" y2="7.6144118" gradientTransform="matrix(-.39497 .47405 .47405 .39497 727.64859 234.95291)" gradientUnits="userSpaceOnUse"/>
    <linearGradient xlink:href="#b" id="m" x1="-88.899521" x2="-87.418037" y1="-112.94703" y2="7.6144118" gradientTransform="matrix(-.55731 .26481 .26481 .55731 780.49607 165.85422)" gradientUnits="userSpaceOnUse"/>
    <linearGradient xlink:href="#b" id="l" x1="-88.899521" x2="-87.418037" y1="-112.94703" y2="7.6144118" gradientTransform="matrix(.06558 .61353 -.61353 .06558 1112.4665 329.03511)" gradientUnits="userSpaceOnUse"/>
    <linearGradient xlink:href="#b" id="k" x1="-88.899521" x2="-87.418037" y1="-112.94703" y2="7.6144118" gradientTransform="rotate(50.2 295.88967722 1286.3151943) scale(.61703)" gradientUnits="userSpaceOnUse"/>
    <linearGradient xlink:href="#b" id="j" x1="-88.899521" x2="-87.418037" y1="-112.94703" y2="7.6144118" gradientTransform="rotate(25.415 151.77073676 2393.441204) scale(.61703)" gradientUnits="userSpaceOnUse"/>
    <linearGradient xlink:href="#c" id="i" x1="812.29974" x2="768.48499" y1="496.92093" y2="345.26733" gradientTransform="matrix(-1 0 0 1 1684.4506 57.100874)" gradientUnits="userSpaceOnUse"/>
    <linearGradient id="c">
      <stop offset="0" stop-color="#c46f00"/>
      <stop offset="1" stop-color="#d47700" stop-opacity="0"/>
    </linearGradient>
    <linearGradient xlink:href="#d" id="h" x1="777.7146" x2="766.23584" y1="473.87817" y2="282.88345" gradientTransform="matrix(-1 0 0 1 1684.4349 57.100874)" gradientUnits="userSpaceOnUse"/>
    <linearGradient id="f">
      <stop offset="0" stop-color="#fac200"/>
      <stop offset="1" stop-color="#a53800"/>
    </linearGradient>
    <radialGradient xlink:href="#e" id="g" cx="385.48495" cy="85.827927" r="169.1541" fx="385.48495" fy="85.827927" gradientTransform="matrix(-1 0 0 1.24725 1296.6731 256.59676)" gradientUnits="userSpaceOnUse"/>
    <radialGradient xlink:href="#f" id="u" cx="625.01593" cy="235.58891" r="88.266502" fx="625.01593" fy="235.58891" gradientTransform="matrix(1 -.0031 .00719 2.3203 -350.27611 -361.31054)" gradientUnits="userSpaceOnUse"/>
  </defs>
  <path fill="url(#g)" d="M742.04594 320.00504c.4452 67.71468 49.397 116.6133 69.0508 176.72851 8.5148 26.04447 2.2171 55.74408 21.0918 79.45118 53.6203.016 108.576.00085 158.0043 0 18.87466-23.7071 12.57696-53.40669 21.09176-79.45118 19.6538-60.11582 68.7035-106.71418 69.0508-176.73046.074-88.92402-89.47106-168.87471-169.14256-168.87499-79.673-.00028-169.0031 79.5178-169.1469 168.87694z" transform="translate(-635.45815 -49.493645)"/>
  <path fill="#fff" d="M419.33985 359.236005c-40.9221 9.18698-107.16162 23.22269-143.91017 23.16406-36.39433.0585-101.65338-13.69688-142.66211-22.88672 2.4172 4.67214 4.90347 9.31741 7.42187 13.94922 41.86767 9.87418 83.05204 21.07975 134.66016 21.36914v.0156c.19586-.00064.38452-.007.58008-.008.19494.00086.38288.007.57812.008v-.0156c52.10046-.29213 93.57805-11.71286 135.85935-21.6543 2.5407-4.62047 5.0428-9.26315 7.4727-13.9414zm21.6601-55.4961c-62.1775 14.86814-117.01394 22.50099-165.57027 23.9004-48.32884-1.3927-102.88341-8.96256-164.70117-23.69336 1.137 4.76203 2.48538 9.44145 4 14.05664 52.75698 10.79915 99.15543 20.92794 160.12109 20.82226v.002c.19487.00075.3855-.00055.58008 0 .19392-.00055.38391.00075.57812 0v-.002c61.35862.10636 107.95185-10.15213 161.13285-21.0293 1.4638-4.5993 2.7696-9.27598 3.8593-14.05664zm1.4786-58.65039c-62.5859 13.44604-117.99405 20.03156-167.04887 20.79883-48.89378-.76459-104.10219-7.31113-166.43555-20.66797-.71774 3.82617-1.27413 7.68409-1.67383 11.56836 55.06912 10.24168 107.14142 19.04571 167.5293 19.30274v.008c.19419-.00047.38606-.003.58008-.004.19343.00065.38452.003.57812.004v-.008c60.61534-.25796 112.84905-9.12493 168.14845-19.41602-.399-3.88845-.9562-7.75339-1.6777-11.58594zm-67.4766-105.59375c-36.5445 9.13525-69.66557 11.07944-99.57227 11.5625-29.80032-.48117-62.79337-2.41526-99.1836-11.46679-3.42064 2.69613-6.76188 5.51122-10.01562 8.4375 34.93318 8.27938 69.68536 12.36748 106.61914 12.94922v.0586c.86351-.00011 1.71903-.0224 2.58008-.0293.8604.007 1.71527.0292 2.57812.0293v-.0586c37.07834-.58401 71.95795-4.7001 107.02925-13.04493-3.2609-2.92508-6.6077-5.74218-10.0351-8.4375zm45.1523 49.90821c-53.8645 12.48222-101.92274 18.86862-144.72457 19.96875-42.66656-1.0965-90.55721-7.44546-144.21485-19.84961-2.16902 3.47052-4.21768 7.00812-6.13672 10.60742 49.09198 10.05937 98.6663 19.25807 149.77149 19.23242v.004c.19356.00062.38656-.002.58008-.002.19286-.00036.38521.003.57812.002v-.004c51.29419.0257 101.04645-9.24084 150.31645-19.34375-1.929-3.60089-3.9896-7.14203-6.17-10.61523z"/>
  <path fill="url(#h)" d="M890.85607 505.8349c-1.2063-1.20628 2.933-4.46354 5.2824-4.46354 2.1812 0 2.477.43362 2.477 3.63084-.2097 4.35292-3.8487 1.08844-7.7594.8327zm45.759 63.43729c-.3243-2.36623 1.7433-77.43179 2.5383-83.45306 1.7015-12.8871 1.8773-23.80344.4269-26.51351-.5693-1.06384-1.9551-1.93426-3.0795-1.93426-1.7822 0-1.9551-.41656-1.3492-3.25.7624-3.56557 9.0718-27.16306 13.4689-38.25 2.8086-7.08157 9.1787-21.70487 27.1795-62.39341 5.4488-12.31638 9.7678-23.11638 9.5978-24-.17-.88363-1.2031-1.70241-2.2957-1.81953-1.0926-.11712-4.4472-.90462-7.4545-1.75-3.6682-1.03115-9.8397-1.53706-18.75-1.53706-7.3052 0-13.2821-.16842-13.2821-.37427.6824-4.31256 3.0418-8.60756 3.0838-13.76751-1.3085 2.74625-3.6191 12.64853-5.417 11.44006-1.2843-1.06581-1.9976-1.14203-3.1063.37408-1.1802 1.61406-2.5033 2.4903-10.547 1.99692-10.2294-.62746-23.0608 1.07302-32.4201 4.29645-3.2486 1.11885-7.3826 2.03427-9.1866 2.03427-2.9697 0-3.3098-.30757-3.5935-3.25-.2619-2.71644-.7237-3.25-2.8133-3.25-2.3515 0-2.8514-3.24164-3.3907-9.3554-.5734-6.49958-.5734-6.49943-.75 2.36663-.173 8.68499.095 11.70882-2.1093 11.07726-8.6193-2.46998-35.2233-1.12462-36.3605 1.83874-.44694 1.16479 4.9059 16.09176 10.4255 29.07277 1.637 3.85 5.2981 13.75 8.1357 22 2.8375 8.25 9.4894 25.8 14.782 39 10.6237 26.49617 12.5239 34.649 8.3823 35.96348-2.8259.89693-3.5133 4.24923-2.747 13.39653 1.7597 21.00309 3.3851 23.86744 2.4953 29.32945l-1.0731 6.58683c19.4928 3.79469 35.8065 65.89816 59.2094 64.12454zm-17.4662-86.57459c-1.3984-7.45396-4.9793-11.59414-4.3906-5.07624.4229 4.23401-3.3375 3.27343-6.2039 4.27155-7.8614 2.05021-5.7537-.41023-4.9344-6.02155-1.3633 3.18896-4.4815 7.72054-5.4191 11.07337-4.5089 3.65098-7.8911 3.12075-13.5854 5.15038-1.7742-23.72031 4.5084-28.69826 16.2078-31.17203 10.4757-2.10894 14.8275-1.50977 22.7922.13653l8.007 1.65505-.8639 11.7922c-.4173 5.69618.2412 11.12242-.25 12.04876-.4912.92634-.8931 2.84921-.8931 4.27305 0 2.57146-.018 2.57736-2.75.88112-3.5388-2.15014-6.9056-5.01847-7.7166-9.01219zm6.0652-27.72061c-6.4646-2.70105-6.5986-3.32725-6.5986-30.82814 0-24.24136.044-24.77749 2.0321-24.77749 1.1177 0 3.6235-.66493 5.5686-1.47763 3.0018-1.25422 3.4883-1.89679 3.2179-4.25-.2687-2.33793-.8452-2.82277-3.6793-3.09398-3.1009-.29676-1.859-7.60572-1.3401-10.2001 1.5159-7.57959 2.6732-15.64201 1.4467-10.54425l-4.7818 19.87409-7.9821-.24454c-4.3901-.13449-10.3285-.38608-13.1964-.55908-5.729-.34556-13.4559 1.50636-14.0785 3.37425-.6804 2.04096 1.8931 4.11364 5.9039 4.75498 2.1182.33871 4.3484 1.21487 4.956 1.94702.786.94702.8942 8.86779.3751 27.44636-.7003 25.06316-.8145 26.16879-2.8359 27.44587-1.1584.73188-3.5148 1.62379-5.2363 1.98197l-3.1302.65129-.4255-6.30312c-.3407-5.0456-2.347-11.09133-10.0569-30.30313-5.2974-13.2-12.7725-32.775-16.6114-43.5-3.839-10.725-9.1266-25.01818-11.7503-31.76262-3.7903-9.74339-4.5162-12.51683-3.533-13.5 1.6586-1.65858 27.8577-1.41447 30.6935.23307 1.3644.79269 3.3554 5.06829 6.3856 14.11631 2.443 7.29455 9.856 31.56862 10.0299 31.04706.1738-.52155-6.7225-24.93913-8.8816-31.36597-4.4414-13.21997-4.6139-12.74563 4.5968-12.63763 2.8622.0336 7.568-.82669 10.5-1.91946 7.6711-2.8591 22.1558-4.60101 31.2067-3.75287 7.5331.70592 7.6065.74032 7.6065 3.56845 0 1.57062.4021 3.10422.8937 3.408.4915.30379-1.868 7.98708-4.0096 13.50945-2.1415 5.52237-5.0971 16.30858-5.0599 16.97739.081 1.44696 2.9074-8.47689 7.8133-20.92114 2.1248-5.54659 4.5625-10.89246 7.56-16l13.6513.096c15.0286.10569 23.7587 1.56941 23.4756 3.93605-.097.80737-4.7407 11.81795-10.3203 24.46795-5.5796 12.65-13.0099 29.525-16.5118 37.5-6.909 15.73446-19.2969 48.01536-21.9699 57.25-.9154 3.1625-1.8719 5.75-2.1255 5.75-.2536 0-1.9629-.62746-3.7983-1.39437zm-31.7392-67.25958c.2486-2.63781-1.9533-8.31011-2.1675-8.71117-.6178 1.40114 2.1484 10.1443 2.1675 8.71117zm12.0938 47.8432c-2.6197-28.86246-2.9757-33.50006-2.6009-33.87486.5682-.56825 13.7236-2.57389 14.1319-2.15451.492.50545-6.192 40.70139-7.5308 45.28809-.9744 3.33827-1.3043 3.67637-2.1366 2.18925-.5413-.9673-1.3799-6.11888-1.8636-11.44797zm31.0468-105.68925c0-1.62953.5595-2.5 1.607-2.5 1.6714 0 2.0994.55782 1.701 1.59581-.6942 1.3177-1.2512 2.82126-2.308 3.40419-.55 0-1-1.125-1-2.5zm-60.0096-1.9923c-.1963-3.08475 2.9739-4.17336 4.1061-2.38582 1.4581 2.30217 1.0126 3.87812-1.0965 3.87812-1.3131 0-2.9286-.22056-3.0096-1.4923zm62.0096-3.5077c0-.55.5887-2.06563 1.1712-2.06563.5824 0 2.4074.89869 2.0674 1.44869-.3399.55-1.4334 1.33651-2.6855 1.33651-.2425 0-.5531-.16957-.5531-.71957z" transform="translate(-635.45815 -49.493645)"/>
  <path fill="url(#i)" d="M937.6653 497.95756c.036-6.13498.4381-16.15567.8926-22.2682.9384-12.621.3936-16.38631-2.3709-16.38631-2.9458 0-3.1868-2.46948-.9483-9.71687 3.5554-11.51088 14.2712-39.02958 22.1114-56.78313 4.1291-9.35 9.419-21.5 11.7554-27 2.3363-5.5 6.8906-15.71122 10.1207-22.6916 3.23-6.98038 5.8723-13.05538 5.8718-13.5-.0006-.44462-3.2631-1.59138-7.25-2.54836-5.8965-1.41532-12.8461-1.78814-37.249-1.99826-28.6236-.24646-36.2816.0293-38.5 2.30137.2244.40391 1.2375.36732 2.75-.26827 2.725-1.1451 12.1717-1.25196 51.25-.57969 13.6943.23558 18.302.66307 21.1877 1.96585l3.6876 1.6648-6.805 15.32708c-26.8363 60.44404-38.6259 89.3923-43.1001 105.82708-1.6844 6.18741-1.9066 6.48758-4.6199 6.2417-1.5676-.14207-3.9753.0276-5.3503.37693-2.4061.61138-2.3498.70456 1.5 2.48208 11.3191 3.9981 8.0716 10.82852 7.9896 18.89929-.085 7.975.2353 15.2875.7127 16.25 1.3334 2.68811-.053 2.0815-2.8557-1.25-2.7435-2.81175-6.3452-4.39135-8.6636-6.92918-4.5587-5.04589-6.4699-5.97466-10.183-4.94857-3.8986 1.07735-12.1399 10.41822-9.9374 11.26337 1.3371.51312 1.3311.9193-.053 3.59641-2.1872 3.89432.6019 2.31988 2.4038 4.41336 1.9258 2.32034 7.6287 2.81814 13.2298 1.15481 5.4511-1.61881 4.3203 69.27279 7.9001 73.34132l13.8727-.01c.3296-.134.6141-72.09202.6506-78.227zm-5.0733-25.40954c0-1.925 1.957-5.24497 2.507-5.24497 1.1089 0-.5168 9.95959-1.5703 11.01302-1.1509 1.15095-.9367-2.17134-.9367-5.76805zm-51.1143 103.63561c2.5679-6.35914 8.9253-73.15002 8.306-75.97836-.274-1.04774-.1599-1.6959.2536-1.44037 1.1936-2.26334.6519-5.89381.062-7.61565-1.7122 1.10475-3.7535 1.56577-5.25 2.88754-1.6561 1.49165-1.7495.99107-1.7402-9.32875.01-9.31091.3504-11.63589 2.3404-15.90499 5.7434-8.54967 10.1676-8.20857 19.1498-10.33337-6.7945-.5565-14.1589-.6364-20-.66661l.3269-4.15729c.3884-4.94045-3.1533-15.77474-12.4742-38.15866-3.5319-8.48173-8.9172-22.68043-11.9674-31.55268-3.0501-8.87226-8.3982-23.33294-11.8846-32.13487-8.4188-21.2546-8.4092-21.21062-4.8482-22.20298 1.5661-.43644 8.493-.79352 15.3931-.79352 9.5516 0 13.1313.36663 15 1.5363 1.6083 1.00672 3.6609 1.33695 5.9544.95802l3.5-.57828-3.5-.69334c-1.925-.38134-5.075-1.03116-7-1.44405-4.1812-.89682-25.8423-1.01049-31.5-.16531-2.5027.37388-4.1158 1.18604-4.3094 2.16973-.1702.86471 3.0391 10.04226 7.1317 20.39456 4.0926 10.3523 9.5604 24.89737 12.1506 32.32237 2.5903 7.425 8.98 24.22545 14.1993 37.33433 6.2897 15.79731 9.6841 25.7174 10.0661 29.4187.5415 5.24737.1881 5.4731-2.2504 7.8383l-3.2233 3.12641 1.6752 16.45489c1.5969 15.68657-.735 93.45606-1.2693 98.7103l5.7082-.002zm44.313-179.07504c0 2.85223 3.77-3.74388 2.4376-5.07623-.5149-.51494-2.6672-1.00219-4.7828-1.08278-5.4108-.33821-3.1877 3.06321-5.5647 6.10347.561 2.36446 5.3813 1.2247 7.9099.0555zm-27.7096-68.17963c1.3333-.86167 1.7138-1.69674 0-.9144-1.1761.53686-12.9605 3.15969-8.4075 3.28702 1.1.0308 7.5825-1.83946 8.4075-2.37262z" transform="translate(-635.45815 -49.493645)"/>
  <path fill="#fff" fill-rule="evenodd" d="M275.73437 101.634455c-3.6494-.00002-7.31958.17108-11 .49804-31.35398 12.7381-108.50349 86.34793-110.79688 170.20898-1.37772 50.37902 13.35617 71.73279 25.74414 92.52539 11.70856 19.65223 19.73564 36.28462 32.36133 60.92383 17.96309 35.0552.72515 98.99561 6.13281 100.90039 4.3439.00067 8.39859-.00038 12.74414 0-3.83159-.66929 7.81418-72.20339-6.98828-107.18164-7.92997-18.7386-19.05435-35.3547-32.0332-59.83985-12.83666-24.21691-24.75323-44.75555-24.94922-83.74023-.41983-83.50828 78.34695-148.94992 108.93164-167.74609 30.58529 18.58679 107.9878 82.31293 109.084 165.44531.5525 41.9015-12.7864 65.57797-25.62306 89.79492-12.97884 24.48512-23.87864 37.28679-31.8086 56.02539-14.80245 34.97825-3.15673 106.57234-6.98828 107.24219 4.10284-.00039 8.53984.00031 12.58789 0 6.03511-.66042-4.17552-78.15461 7.30078-102.30664 10.939-23.02126 19.56489-36.0177 31.27347-55.66993 12.3879-20.79259 27.198-46.05458 25.8203-96.43359-2.2878-83.65866-79.08173-157.12872-110.58205-170.13085-3.75134-.34111-7.49249-.51561-11.21093-.51562z"/>
  <path fill="url(#j)" d="m998.53136 155.85277 37.68554-68.43687-27.7019-13.162747-28.86685 73.180607Z" transform="translate(-635.45815 -49.493645)"/>
  <path fill="url(#k)" d="m1059.8362 207.75817 62.9034-46.33538-19.6324-23.56308-56.8856 54.33899z" transform="translate(-635.45815 -49.493645)"/>
  <path fill="url(#l)" d="m1098.8816 286.50953 78.0417-3.64861-3.26-30.4963-77.4757 13.64619z" transform="translate(-635.45815 -49.493645)"/>
  <path fill="url(#m)" d="m823.85004 155.20506-37.68553-68.436868 27.70187-13.16275 28.86687 73.180608z" transform="translate(-635.45815 -49.493645)"/>
  <path fill="url(#n)" d="m762.54515 207.11047-62.9034-46.33539 19.63243-23.56308 56.8856 54.339z" transform="translate(-635.45815 -49.493645)"/>
  <path fill="url(#o)" d="m723.49975 285.86182-78.04161-3.64861 3.25995-30.4963 77.47567 13.64619z" transform="translate(-635.45815 -49.493645)"/>
  <path fill="url(#p)" d="m731.27345 374.8094-71.48649 31.51964-10.67503-28.75231 75.43613-22.3179z" transform="translate(-635.45815 -49.493645)"/>
  <path fill="url(#q)" d="m766.84154 450.93879-57.43626 52.96115-19.40672-23.74934 64.15165-45.53312z" transform="translate(-635.45815 -49.493645)"/>
  <path fill="url(#r)" d="m1087.1065 376.00587 71.4865 31.51964 10.675-28.75231-75.4361-22.3179z" transform="translate(-635.45815 -49.493645)"/>
  <path fill="url(#s)" d="m1051.5384 452.13526 57.4363 52.96115 19.4067-23.74934-64.1516-45.53312z" transform="translate(-635.45815 -49.493645)"/>
  <path fill="#fff" d="M270.76083 101.702885c-11.26507 141.6707-2.22991 293.41767-2.00105 425.01211l13.94557-.003c.0699-131.09307 9.35748-277.2028-1.75974-424.97196z"/>
  <path fill="url(#t)" d="m920.72012 137.26404 4.66717-77.987315h-30.67004l5.33392 78.487235z" transform="translate(-635.45815 -49.493645)"/>
  <path fill="#fff" d="M279.67365 101.72357c-12.31109-.0714-24.63541 1.17975-36.64844 3.72071-19.14967 2.93818-37.03991 9.76224-53.15429 19.51367-2.77357 6.67891-3.48313 13.90168-1.70703 20.62304 3.52879 13.35423 13.48423 23.85424 26.46289 33.01172 10.88611 7.68103 24.39243 14.2597 39.59179 19.4961.28275 12.68672.62196 26.49779.99024 41.43359-12.80684 5.93085-23.16699 12.30781-30.92578 19.63672-9.33777 8.8204-15.37036 19.94414-14.83985 31.81836.53052 11.87422 7.22537 22.33305 16.87891 30.97656 8.11162 7.26292 18.74859 13.69766 31.67187 19.7207.32284 12.96463.67538 25.67692 1.04102 38.15039-6.73768 3.31272-12.28444 7.35285-16.44727 12.36329-5.83385 7.0217-8.50984 16.21532-7.30468 24.63476 2.03111 14.18971 12.32076 24.83127 25.96875 31.72266.12534 3.22732.25179 6.38421.37695 9.4082-6.04779 2.65373-10.80342 5.77638-14.42969 10.51953-2.63991 3.453-4.3988 8.14752-4.30664 12.66602.0922 4.5185 1.77425 8.36021 3.69727 11.2207 3.84604 5.72098 8.61956 8.74228 13.09961 11.20899.90732.49957 1.73172.8157 2.60351 1.24609-.0521 5.24699-.12161 11.36482-.125 14.50781-.003 2.51761.0109 4.37126.0645 5.88477.0189.53363.0465 1.03661.0937 1.60351h27.24804c.35475-1.16524.5985-2.28143.83203-3.42187.93372-4.55956 1.32712-9.47296 1.6211-14.89063.51486-9.48855.57463-19.83893.83203-28.49804 2.21794-1.20145 4.47133-2.59748 6.67773-4.41407 4.66365-3.83969 9.0433-9.86581 10.45313-17.22656 1.53636-8.02136-.29842-16.29895-4.15625-22.21289-3.35071-5.13654-7.63974-8.51125-11.88086-11.34766.13152-7.44591.26214-13.91394.46094-20.9707 7.74037-2.92504 16.46925-6.57151 24.5039-12.80664 8.19518-6.3597 15.49181-15.83848 18.57813-28.26172.14195-.57162.24375-1.15246.30468-1.73828 1.44259-13.85879-7.47866-24.01429-16.08984-31.07227-7.95611-6.52105-16.95326-11.43583-24.59766-15.4707.39238-14.10267.78554-27.65989 1.17774-42.01758.005-.31721-.002-.6345-.0215-.95117 2.01744-.8431 3.91332-1.58411 5.95312-2.47851 11.93036-5.23121 24.1832-11.35747 33.77734-21.23438 9.58802-9.8706 15.65317-24.70495 13.04493-41.27734-.00033-.002-.002-.004-.002-.006-2.1509-13.81213-12.36845-22.93242-22.70898-29.00196-8.75839-5.14087-18.29695-8.5486-27.24414-11.41406.2124-8.25289.55108-21.8451.70117-27.59375 9.72946 2.98882 16.48157 7.59504 18.47852 11.82031 1.61516 3.41789 4.67573 5.93313 8.34179 6.85547 11.52598 2.89992 24.99599 1.78133 37.35742-1.44922 6.18072-1.61527 12.2374-2.67067 17.7168-10.21484.63399-.87289 1.18492-1.91906 1.64258-3.06445-1.35004-1.1677-2.71162-2.32053-4.0957-3.44336-27.82348-24.94942-64.62534-37.0711-101.5586-37.28516zm-27.15039 36.61133c.0613 2.03398.20383 6.68889.32227 9.67383-1.81929-1.20938-4.00466-2.52488-5.18946-3.53516-1.66615-1.42074-2.25202-2.2481-2.75195-2.93164 1.40608-.96105 4.25402-2.12691 7.61914-3.20703z"/>
  <path fill="url(#u)" d="m256.93356 6.5804932 4.37009 95.5415468c-100.59945 12.15049-68.23818 66.60804 2.86026 87.54335.35074 17.1719 1.63407 36.78464 2.15995 58.55928-63.17037 26.21479-59.59028 58.58165 2.99854 85.10176.43823 18.67659 1.97448 37.03661 2.50038 54.73955-37.33375 13.18908-27.50912 41.33012 1.66602 52.13476.35073 9.73665.70016 18.07476 1.05078 26.30664-33.56176 12.66885-7.39782 27.77955.38867 29.70118-.22463 21.30407-.32947 30.25045.0625 30.3164 5.32664-.90156 4.49826-31.9765 5.28711-51.0957-1.63222.48322-3.70065 1.21846-5.28516 1.56836.0503 4.57295.0154 10.968-.0566 17.98828-9.7023-4.92972-10.9772-12.12672-9.28851-15.50028 3.9068-7.80473 28.61798-6.59722 31.85687-23.50753 1.99997-10.44187-4.12017-16.75089-12.27148-21.88477-.0879 4.95688-.12679 6.95072-.30218 11.64203 8.85491 7.45697.6575 15.82718-4.55524 18.48492.61353-16.19823.7458-40.98801 1.35937-61.96484-3.24305.66787-6.8237 1.906-9.71602 3.08721.26294 5.6649.85531 17.31547 1.03047 22.80342-7.83587-3.33049-12.81764-8.40905-12.63672-16.03125.51162-21.55436 52.51305-12.75552 60.10325-51.51339 2.6558-13.56129-15.64649-27.80552-31.33567-36.03739-.17516 5.84197-.26221 10.34944-.4375 16.1914 26.38022 12.83316 15.0608 35.40466-6.31445 44.03516 1.05179-36.55659 2.10446-74.17576 3.15625-112.67969-5.78488 2.56691-12.49359 4.95848-17.84023 7.52539.35074 11.50694 1.11934 22.9874 1.46992 34.75986-14.37443-7.25822-24.73819-14.04856-21.58281-25.73252 7.80086-28.41204 99.09261-28.07181 90.85352-80.20703-2.6295-16.90632-25.62905-25.47599-45.35017-31.49497l-.79239 19.49693c35.13416 14.43175 16.4835 32.66662-5.79492 41.48632 1.0518-42.39864 2.81924-83.73729 3.34515-103.82979-8.01543-.99432-20.14851-1.18273-27.3341.14098.0879 5.04533.81734 18.85453 1.16797 35.05274-100.06065-43.68961 47.66698-67.18099 67.89173-24.3878 14.14236 3.5582 55.96461-2.32023 38.32965-15.06796-21.58528-15.90173-53.06038-27.22124-79.41853-27.60575l3.30126-95.7418628ZM341.49857 120.49567c4.02307.037 12.22969 4.64953 11.35742 6.79101-5.80406 4.33816-12.56751-1.11825-12.7871-6.50586.36526-.202.85496-.29044 1.42968-.28515z"/>
</svg>